<svg width="83" height="133" viewBox="0 0 83 133" fill="none" xmlns="http://www.w3.org/2000/svg">
<path d="M80.7493 49.9056C77.7672 40.6912 69.6596 33.9898 59.6882 36.1305C46.1755 39.0159 42.7274 51.674 36.9496 62.2846C30.799 55.397 23.3438 48.6026 14.8634 47.1134C6.56939 45.6242 0.418796 50.8364 0.0460323 59.12C-1.07226 81.9234 18.4046 107.054 34.5267 121.108C35.9245 122.318 37.4156 122.597 38.7203 122.132C38.3475 122.597 38.0679 123.062 37.6952 123.621C33.3152 129.95 41.8887 136.465 47.0142 130.881C64.6273 111.987 89.7888 77.6419 80.7493 49.9056ZM67.6094 70.9405C63.509 87.9732 53.3512 101.655 43.3798 115.523C43.007 115.989 42.7275 116.454 42.3547 116.919C42.3547 115.616 41.8887 114.22 40.6772 113.103C36.0177 108.822 31.8241 104.075 28.1897 99.0491C23.4369 92.5339 19.5229 85.4602 16.634 77.735C15.1429 73.7328 8.71278 59.9577 16.168 60.7023C21.8527 61.2608 29.2148 72.709 32.3833 76.8973C35.0858 80.4342 39.9317 80.1549 42.7275 76.9904C48.7849 70.1029 50.2759 61.633 55.4946 54.3732C59.6882 48.5095 67.2367 48.2303 68.9141 56.0486C69.846 60.9815 68.7277 66.1937 67.6094 70.9405Z" fill="#FFCB3C"/>
<path d="M36.9497 5.01971C29.4944 4.64741 22.5983 9.58038 20.7345 17.1194C19.9889 17.6779 19.4298 18.7017 19.2434 20.0048C17.9387 29.2192 25.6736 37.1305 34.2471 37.689C43.0071 38.2474 49.9032 30.8945 50.4623 22.0524C50.9283 13.3034 45.6164 5.48509 36.9497 5.01971Z" stroke="#FFCB3C" stroke-width="10" stroke-miterlimit="10"/>
<path d="M30.2399 118.967C30.4263 118.874 30.6127 118.874 30.7058 118.781C30.9854 118.688 31.265 118.595 31.5446 118.502" fill="#FFCB3C"/>
</svg>
